<svg xmlns="http://www.w3.org/2000/svg" xmlns:xlink="http://www.w3.org/1999/xlink" width="347.239" height="406" viewBox="0 0 347.239 406">
  <defs>
    <clipPath id="clip-path">
      <path id="Path_223" data-name="Path 223" d="M347.239,0H0V406H347.239Z" fill="none"/>
    </clipPath>
  </defs>
  <g id="analyze_icon" clip-path="url(#clip-path)">
    <path id="Path_198" data-name="Path 198" d="M347.239,0H0V406H347.239Z" fill="rgba(0,0,0,0)" stroke="#fff" stroke-width="1" fill-rule="evenodd"/>
    <path id="Path_199" data-name="Path 199" d="M60.733,88.8,36,106.176l96.429,136.957,24.73-17.378Z" transform="translate(120.621 82.511)" fill="#f6d55c" fill-rule="evenodd"/>
    <path id="Path_200" data-name="Path 200" d="M60.733,88.8,36,106.176l96.429,136.957,24.73-17.378Z" transform="translate(120.621 82.511)" fill="none" fill-rule="evenodd"/>
    <path id="Path_201" data-name="Path 201" d="M292.3,121.22h0A120.278,120.278,0,0,0,172.017.942h0A120.278,120.278,0,0,0,51.739,121.22h0A120.278,120.278,0,0,0,172.017,241.5h0A120.278,120.278,0,0,0,292.3,121.22Z" transform="translate(-44.871 0.875)" fill="#f6d55c" fill-rule="evenodd"/>
    <path id="Path_202" data-name="Path 202" d="M292.3,121.22h0A120.278,120.278,0,0,0,172.017.942h0A120.278,120.278,0,0,0,51.739,121.22h0A120.278,120.278,0,0,0,172.017,241.5h0A120.278,120.278,0,0,0,292.3,121.22Z" transform="translate(-44.871 0.875)" fill="none" fill-rule="evenodd"/>
    <path id="Path_203" data-name="Path 203" d="M254.6,109h0a94.819,94.819,0,0,0-94.819-94.819h0A94.819,94.819,0,0,0,64.957,109h0a94.819,94.819,0,0,0,94.819,94.819h0A94.819,94.819,0,0,0,254.6,109Z" transform="translate(-32.671 13.173)" fill="#cfe2f3" fill-rule="evenodd"/>
    <path id="Path_204" data-name="Path 204" d="M254.6,109h0a94.819,94.819,0,0,0-94.819-94.819h0A94.819,94.819,0,0,0,64.957,109h0a94.819,94.819,0,0,0,94.819,94.819h0A94.819,94.819,0,0,0,254.6,109Z" transform="translate(-32.671 13.173)" fill="none" fill-rule="evenodd"/>
    <path id="Path_205" data-name="Path 205" d="M39.405,148.531,5.2,172.653l67.2,95.335,34.209-24.122Z" transform="translate(230.606 138.014)" fill="#ed553b" fill-rule="evenodd"/>
    <path id="Path_206" data-name="Path 206" d="M39.405,148.531,5.2,172.653l67.2,95.335,34.209-24.122Z" transform="translate(230.606 138.014)" fill="none" fill-rule="evenodd"/>
    <path id="Path_207" data-name="Path 207" d="M60.476,156.076,34.713,174.365" transform="translate(219.795 145.024)" fill="rgba(0,0,0,0)" stroke="#fff" stroke-width="1" fill-rule="evenodd"/>
    <path id="Path_208" data-name="Path 208" d="M60.476,156.076,34.713,174.365" transform="translate(219.795 145.024)" fill="none" stroke="#fff" stroke-linejoin="round" stroke-miterlimit="10" stroke-width="1" fill-rule="evenodd"/>
    <path id="Path_209" data-name="Path 209" d="M58.354,168.12,33.259,185.862" transform="translate(224.722 156.215)" fill="rgba(0,0,0,0)" stroke="#fff" stroke-width="1" fill-rule="evenodd"/>
    <path id="Path_210" data-name="Path 210" d="M58.354,168.12,33.259,185.862" transform="translate(224.722 156.215)" fill="none" stroke="#fff" stroke-linejoin="round" stroke-miterlimit="10" stroke-width="1" fill-rule="evenodd"/>
    <path id="Path_211" data-name="Path 211" d="M44.936,173.554l-22.543,16.1" transform="translate(259.101 161.265)" fill="rgba(0,0,0,0)" stroke="#fff" stroke-width="1" fill-rule="evenodd"/>
    <path id="Path_212" data-name="Path 212" d="M44.936,173.554l-22.543,16.1" transform="translate(259.101 161.265)" fill="none" stroke="#fff" stroke-linejoin="round" stroke-miterlimit="10" stroke-width="1" fill-rule="evenodd"/>
    <path id="Path_213" data-name="Path 213" d="M46.863,185.015,20.128,203.851" transform="translate(261.545 171.914)" fill="rgba(0,0,0,0)" stroke="#fff" stroke-width="1" fill-rule="evenodd"/>
    <path id="Path_214" data-name="Path 214" d="M46.863,185.015,20.128,203.851" transform="translate(261.545 171.914)" fill="none" stroke="#fff" stroke-linejoin="round" stroke-miterlimit="10" stroke-width="1" fill-rule="evenodd"/>
    <path id="Path_215" data-name="Path 215" d="M37.417,191.032,10.074,210.415" transform="translate(290.386 177.505)" fill="rgba(0,0,0,0)" stroke="#fff" stroke-width="1" fill-rule="evenodd"/>
    <path id="Path_216" data-name="Path 216" d="M37.417,191.032,10.074,210.415" transform="translate(290.386 177.505)" fill="none" stroke="#fff" stroke-linejoin="round" stroke-miterlimit="10" stroke-width="1" fill-rule="evenodd"/>
    <path id="Path_217" data-name="Path 217" d="M150.827,61.084h0c3.691-7.114-9.5-21.26-29.47-31.6S82.212,16.541,78.52,23.655h0c10.766.557,25.293,5.148,39.4,12.452s26.24,16.512,32.9,24.977Z" transform="translate(44.312 18.257)" fill="#fff" fill-rule="evenodd"/>
    <path id="Path_218" data-name="Path 218" d="M150.827,61.084h0c3.691-7.114-9.5-21.26-29.47-31.6S82.212,16.541,78.52,23.655h0c10.766.557,25.293,5.148,39.4,12.452s26.24,16.512,32.9,24.977Z" transform="translate(44.312 18.257)" fill="none" fill-rule="evenodd"/>
    <path id="Path_219" data-name="Path 219" d="M114.725,102.868h0c-1.107,4.027,5.245,9.318,14.188,11.818s17.091,1.262,18.2-2.765h0c-4.519,1.147-10.848.785-17.168-.982S118.013,106.2,114.725,102.868Z" transform="translate(-20.957 95.584)" fill="#fff" fill-rule="evenodd"/>
    <path id="Path_220" data-name="Path 220" d="M114.725,102.868h0c-1.107,4.027,5.245,9.318,14.188,11.818s17.091,1.262,18.2-2.765h0c-4.519,1.147-10.848.785-17.168-.982S118.013,106.2,114.725,102.868Z" transform="translate(-20.957 95.584)" fill="none" fill-rule="evenodd"/>
    <path id="Path_221" data-name="Path 221" d="M133.469,22.318h0c-.268-1.493-3.873-2.078-8.051-1.306h0c-4.178.772-7.347,2.608-7.079,4.1h0c.268,1.493,3.873,2.078,8.051,1.306h0C130.569,25.647,133.738,23.811,133.469,22.318Z" transform="translate(-14.516 19.207)" fill="#fff" fill-rule="evenodd"/>
    <path id="Path_222" data-name="Path 222" d="M133.469,22.318h0c-.268-1.493-3.873-2.078-8.051-1.306h0c-4.178.772-7.347,2.608-7.079,4.1h0c.268,1.493,3.873,2.078,8.051,1.306h0C130.569,25.647,133.738,23.811,133.469,22.318Z" transform="translate(-14.516 19.207)" fill="none" fill-rule="evenodd"/>
  </g>
</svg>
