<?xml version="1.0" encoding="UTF-8"?>
<svg width="347.24" height="406" viewBox="0 0 347.239 406" xmlns="http://www.w3.org/2000/svg">
<defs>
<clipPath id="a">
<path d="M347.239,0H0V406H347.239Z" fill="none" data-name="Path 223"/>
</clipPath>
</defs>
<g clip-path="url(#a)" fill-rule="evenodd">
<path d="M347.239,0H0V406H347.239Z" fill="rgba(0,0,0,0)" stroke="#fff" data-name="Path 198"/>
<path transform="translate(120.62 82.511)" d="M60.733,88.8,36,106.176l96.429,136.957,24.73-17.378Z" fill="#f6d55c" data-name="Path 199"/>
<path transform="translate(120.62 82.511)" d="M60.733,88.8,36,106.176l96.429,136.957,24.73-17.378Z" fill="none" data-name="Path 200"/>
<path transform="translate(-44.871 .875)" d="m292.3 121.22a120.28 120.28 0 0 0 -120.28 -120.28 120.28 120.28 0 0 0 -120.28 120.28 120.28 120.28 0 0 0 120.28 120.28 120.28 120.28 0 0 0 120.28 -120.28z" fill="#f6d55c" data-name="Path 201"/>
<path transform="translate(-44.871 .875)" d="m292.3 121.22a120.28 120.28 0 0 0 -120.28 -120.28 120.28 120.28 0 0 0 -120.28 120.28 120.28 120.28 0 0 0 120.28 120.28 120.28 120.28 0 0 0 120.28 -120.28z" fill="none" data-name="Path 202"/>
<path transform="translate(-32.671 13.173)" d="M254.6,109h0a94.819,94.819,0,0,0-94.819-94.819h0A94.819,94.819,0,0,0,64.957,109h0a94.819,94.819,0,0,0,94.819,94.819h0A94.819,94.819,0,0,0,254.6,109Z" fill="#cfe2f3" data-name="Path 203"/>
<path transform="translate(-32.671 13.173)" d="M254.6,109h0a94.819,94.819,0,0,0-94.819-94.819h0A94.819,94.819,0,0,0,64.957,109h0a94.819,94.819,0,0,0,94.819,94.819h0A94.819,94.819,0,0,0,254.6,109Z" fill="none" data-name="Path 204"/>
<path transform="translate(230.61 138.01)" d="M39.405,148.531,5.2,172.653l67.2,95.335,34.209-24.122Z" fill="#ed553b" data-name="Path 205"/>
<path transform="translate(230.61 138.01)" d="M39.405,148.531,5.2,172.653l67.2,95.335,34.209-24.122Z" fill="none" data-name="Path 206"/>
<path transform="translate(219.8 145.02)" d="m60.476 156.08-25.763 18.289" fill="rgba(0,0,0,0)" stroke="#fff" data-name="Path 207"/>
<path transform="translate(219.8 145.02)" d="m60.476 156.08-25.763 18.289" fill="none" stroke="#fff" stroke-linejoin="round" stroke-miterlimit="10" data-name="Path 208"/>
<path transform="translate(224.72 156.22)" d="m58.354 168.12-25.095 17.742" fill="rgba(0,0,0,0)" stroke="#fff" data-name="Path 209"/>
<path transform="translate(224.72 156.22)" d="m58.354 168.12-25.095 17.742" fill="none" stroke="#fff" stroke-linejoin="round" stroke-miterlimit="10" data-name="Path 210"/>
<path transform="translate(259.1 161.26)" d="m44.936 173.55l-22.543 16.1" fill="rgba(0,0,0,0)" stroke="#fff" data-name="Path 211"/>
<path transform="translate(259.1 161.26)" d="m44.936 173.55l-22.543 16.1" fill="none" stroke="#fff" stroke-linejoin="round" stroke-miterlimit="10" data-name="Path 212"/>
<path transform="translate(261.54 171.91)" d="m46.863 185.02-26.735 18.836" fill="rgba(0,0,0,0)" stroke="#fff" data-name="Path 213"/>
<path transform="translate(261.54 171.91)" d="m46.863 185.02-26.735 18.836" fill="none" stroke="#fff" stroke-linejoin="round" stroke-miterlimit="10" data-name="Path 214"/>
<path transform="translate(290.39 177.5)" d="m37.417 191.03-27.343 19.383" fill="rgba(0,0,0,0)" stroke="#fff" data-name="Path 215"/>
<path transform="translate(290.39 177.5)" d="m37.417 191.03-27.343 19.383" fill="none" stroke="#fff" stroke-linejoin="round" stroke-miterlimit="10" data-name="Path 216"/>
<path transform="translate(44.312 18.257)" d="m150.83 61.084c3.691-7.114-9.5-21.26-29.47-31.6s-39.145-12.943-42.837-5.829c10.766 0.557 25.293 5.148 39.4 12.452s26.24 16.512 32.9 24.977z" fill="#fff" data-name="Path 217"/>
<path transform="translate(44.312 18.257)" d="m150.83 61.084c3.691-7.114-9.5-21.26-29.47-31.6s-39.145-12.943-42.837-5.829c10.766 0.557 25.293 5.148 39.4 12.452s26.24 16.512 32.9 24.977z" fill="none" data-name="Path 218"/>
<path transform="translate(-20.957 95.584)" d="m114.72 102.87c-1.107 4.027 5.245 9.318 14.188 11.818s17.091 1.262 18.2-2.765c-4.519 1.147-10.848 0.785-17.168-0.982s-11.932-4.739-15.22-8.071z" fill="#fff" data-name="Path 219"/>
<path transform="translate(-20.957 95.584)" d="m114.72 102.87c-1.107 4.027 5.245 9.318 14.188 11.818s17.091 1.262 18.2-2.765c-4.519 1.147-10.848 0.785-17.168-0.982s-11.932-4.739-15.22-8.071z" fill="none" data-name="Path 220"/>
<path transform="translate(-14.516 19.207)" d="m133.47 22.318c-0.268-1.493-3.873-2.078-8.051-1.306s-7.347 2.608-7.079 4.1c0.268 1.493 3.873 2.078 8.051 1.306 4.179-0.771 7.348-2.607 7.079-4.1z" fill="#fff" data-name="Path 221"/>
<path transform="translate(-14.516 19.207)" d="m133.47 22.318c-0.268-1.493-3.873-2.078-8.051-1.306s-7.347 2.608-7.079 4.1c0.268 1.493 3.873 2.078 8.051 1.306 4.179-0.771 7.348-2.607 7.079-4.1z" fill="none" data-name="Path 222"/>
</g>
</svg>
