<svg xmlns="http://www.w3.org/2000/svg" xmlns:xlink="http://www.w3.org/1999/xlink" width="169.601" height="200" viewBox="0 0 169.601 200">
  <defs>
    <clipPath id="clip-path">
      <path id="Path_166" data-name="Path 166" d="M0,0H169.6V200H0Z" fill="none"/>
    </clipPath>
  </defs>
  <g id="currency_icon" clip-path="url(#clip-path)">
    <path id="Path_141" data-name="Path 141" d="M0,0H169.6V200H0Z" fill="rgba(0,0,0,0)" fill-rule="evenodd"/>
    <path id="Path_142" data-name="Path 142" d="M105.32,66.916h0c-.975,17.7-12.83,32.515-29.4,36.747S41.79,100.587,32.378,85.54,23.82,51.1,34.5,37.435A38.379,38.379,0,0,1,79.361,25.41L74.185,39.84a23.1,23.1,0,0,0-27.7,7.117C39.9,55.475,39.395,67.7,45.247,77.233S61.972,91.441,72.178,88.809,89.6,76.84,90.047,65.681Z" transform="translate(-1.434 -1.251)" fill="#20639b" fill-rule="evenodd"/>
    <path id="Path_143" data-name="Path 143" d="M105.32,66.916h0c-.975,17.7-12.83,32.515-29.4,36.747S41.79,100.587,32.378,85.54,23.82,51.1,34.5,37.435A38.379,38.379,0,0,1,79.361,25.41L74.185,39.84a23.1,23.1,0,0,0-27.7,7.117C39.9,55.475,39.395,67.7,45.247,77.233S61.972,91.441,72.178,88.809,89.6,76.84,90.047,65.681Z" transform="translate(-1.434 -1.251)" fill="none" fill-rule="evenodd"/>
    <path id="Path_144" data-name="Path 144" d="M10.562,76.531,54.889,58.325l3,7.348L13.567,83.879Z" transform="translate(-0.586 -3.235)" fill="#20639b" fill-rule="evenodd"/>
    <path id="Path_145" data-name="Path 145" d="M10.562,76.531,54.889,58.325l3,7.348L13.567,83.879Z" transform="translate(-0.586 -3.235)" fill="none" fill-rule="evenodd"/>
    <path id="Path_146" data-name="Path 146" d="M15.3,85.761l51.109-17.82,2.529,7.318L17.825,93.079Z" transform="translate(-0.848 -3.768)" fill="#20639b" fill-rule="evenodd"/>
    <path id="Path_147" data-name="Path 147" d="M15.3,85.761l51.109-17.82,2.529,7.318L17.825,93.079Z" transform="translate(-0.848 -3.768)" fill="none" fill-rule="evenodd"/>
    <path id="Path_148" data-name="Path 148" d="M38.127,94.288h0A42.161,42.161,0,0,1,26.656,59.669l14.188,2.2h0A27.84,27.84,0,0,0,48.145,84Z" transform="translate(-1.459 -3.309)" fill="#20639b" fill-rule="evenodd"/>
    <path id="Path_149" data-name="Path 149" d="M128.836,160h0a26.052,26.052,0,1,1,28.553-5.3l-8.7-8.9h0a13.58,13.58,0,1,0-14.916,2.774Z" transform="translate(-6.275 -6.1)" fill="#3caea3" fill-rule="evenodd"/>
    <path id="Path_150" data-name="Path 150" d="M128.836,160h0a26.052,26.052,0,1,1,28.553-5.3l-8.7-8.9h0a13.58,13.58,0,1,0-14.916,2.774Z" transform="translate(-6.275 -6.1)" fill="none" fill-rule="evenodd"/>
    <path id="Path_151" data-name="Path 151" d="M131.76,150.508h0a26.033,26.033,0,1,1-29.641,3.639l8.438,9.384h0a13.407,13.407,0,1,0,15.286-1.883Z" transform="translate(-5.186 -8.347)" fill="#3caea3" fill-rule="evenodd"/>
    <path id="Path_152" data-name="Path 152" d="M131.76,150.508h0a26.033,26.033,0,1,1-29.641,3.639l8.438,9.384h0a13.407,13.407,0,1,0,15.286-1.883Z" transform="translate(-5.186 -8.347)" fill="none" fill-rule="evenodd"/>
    <path id="Path_153" data-name="Path 153" d="M89.685,196.583l69.2-98.44,3.719,2.618L93.4,199.2Z" transform="translate(-4.974 -5.443)" fill="#3caea3" fill-rule="evenodd"/>
    <path id="Path_154" data-name="Path 154" d="M89.685,196.583l69.2-98.44,3.719,2.618L93.4,199.2Z" transform="translate(-4.974 -5.443)" fill="none" fill-rule="evenodd"/>
    <path id="Path_155" data-name="Path 155" d="M97.3,198.249l71.517-96.775,3.659,2.707-71.517,96.775Z" transform="translate(-5.396 -5.628)" fill="#3caea3" fill-rule="evenodd"/>
    <path id="Path_156" data-name="Path 156" d="M97.3,198.249l71.517-96.775,3.659,2.707-71.517,96.775Z" transform="translate(-5.396 -5.628)" fill="none" fill-rule="evenodd"/>
    <path id="Path_157" data-name="Path 157" d="M144.355,110.867h0a25.8,25.8,0,0,1,21.829,22.455l-11.277,1.354A14.443,14.443,0,0,0,142.692,122.1Z" transform="translate(-7.913 -6.149)" fill="#3caea3" fill-rule="evenodd"/>
    <path id="Path_158" data-name="Path 158" d="M116.024,200.388h0A25.822,25.822,0,0,1,94.5,179.007l11.449-1.875a14.22,14.22,0,0,0,11.839,11.79Z" transform="translate(-5.241 -9.823)" fill="#3caea3" fill-rule="evenodd"/>
    <path id="Path_159" data-name="Path 159" d="M129.019,161.654a25.6,25.6,0,0,1-10.368-9.171L128,146.3h0a14.4,14.4,0,0,0,5.8,5.218Z" transform="translate(-6.58 -8.114)" fill="#3caea3" fill-rule="evenodd"/>
    <path id="Path_160" data-name="Path 160" d="M133.747,151.26h0a25.825,25.825,0,0,1,9.505,9.072l-9.769,5.951a14.366,14.366,0,0,0-5.3-5.026Z" transform="translate(-7.109 -8.389)" fill="#3caea3" fill-rule="evenodd"/>
    <path id="Path_161" data-name="Path 161" d="M130.215,149.521h0c.279-.386,1.751.193,3.287,1.294h0c1.536,1.1,2.555,2.306,2.276,2.692h0c-.279.386-1.751-.193-3.287-1.294h0C130.955,151.112,129.936,149.907,130.215,149.521Z" transform="translate(-7.219 -8.286)" fill="#3caea3" fill-rule="evenodd"/>
    <path id="Path_162" data-name="Path 162" d="M105.513,29.592l18.275-3.549h0a19.719,19.719,0,0,1,23.12,15.607l4.127,21.3,6.626-1.287-8.922,13.217-13.212-8.918,6.626-1.287-4.127-21.3h0a10.675,10.675,0,0,0-12.517-8.449l-18.275,3.549Z" transform="translate(-5.852 -1.424)" fill="#f6d55c" fill-rule="evenodd"/>
    <path id="Path_163" data-name="Path 163" d="M105.513,29.592l18.275-3.549h0a19.719,19.719,0,0,1,23.12,15.607l4.127,21.3,6.626-1.287-8.922,13.217-13.212-8.918,6.626-1.287-4.127-21.3h0a10.675,10.675,0,0,0-12.517-8.449l-18.275,3.549Z" transform="translate(-5.852 -1.424)" fill="none" fill-rule="evenodd"/>
    <path id="Path_164" data-name="Path 164" d="M66.117,180.424,47.83,183.9h0a19.717,19.717,0,0,1-23.056-15.7l-4.041-21.308-6.63,1.26,8.974-13.18,13.175,8.97-6.63,1.26,4.041,21.308h0a10.674,10.674,0,0,0,12.482,8.5l18.287-3.476Z" transform="translate(-0.782 -7.486)" fill="#ed553b" fill-rule="evenodd"/>
    <path id="Path_165" data-name="Path 165" d="M66.117,180.424,47.83,183.9h0a19.717,19.717,0,0,1-23.056-15.7l-4.041-21.308-6.63,1.26,8.974-13.18,13.175,8.97-6.63,1.26,4.041,21.308h0a10.674,10.674,0,0,0,12.482,8.5l18.287-3.476Z" transform="translate(-0.782 -7.486)" fill="none" fill-rule="evenodd"/>
  </g>
</svg>
