<?xml version="1.0" encoding="UTF-8"?>
<svg width="169.6" height="200" viewBox="0 0 169.601 200" xmlns="http://www.w3.org/2000/svg">
<defs>
<clipPath id="a">
<path d="M0,0H169.6V200H0Z" fill="none" data-name="Path 166"/>
</clipPath>
</defs>
<g clip-path="url(#a)" fill-rule="evenodd">
<path d="M0,0H169.6V200H0Z" fill="rgba(0,0,0,0)" data-name="Path 141"/>
<path transform="translate(-1.434 -1.251)" d="M105.32,66.916h0c-.975,17.7-12.83,32.515-29.4,36.747S41.79,100.587,32.378,85.54,23.82,51.1,34.5,37.435A38.379,38.379,0,0,1,79.361,25.41L74.185,39.84a23.1,23.1,0,0,0-27.7,7.117C39.9,55.475,39.395,67.7,45.247,77.233S61.972,91.441,72.178,88.809,89.6,76.84,90.047,65.681Z" fill="#20639b" data-name="Path 142"/>
<path transform="translate(-1.434 -1.251)" d="M105.32,66.916h0c-.975,17.7-12.83,32.515-29.4,36.747S41.79,100.587,32.378,85.54,23.82,51.1,34.5,37.435A38.379,38.379,0,0,1,79.361,25.41L74.185,39.84a23.1,23.1,0,0,0-27.7,7.117C39.9,55.475,39.395,67.7,45.247,77.233S61.972,91.441,72.178,88.809,89.6,76.84,90.047,65.681Z" fill="none" data-name="Path 143"/>
<path transform="translate(-.586 -3.235)" d="m10.562 76.531 44.327-18.206l3 7.348-44.322 18.206z" fill="#20639b" data-name="Path 144"/>
<path transform="translate(-.586 -3.235)" d="m10.562 76.531 44.327-18.206l3 7.348-44.322 18.206z" fill="none" data-name="Path 145"/>
<path transform="translate(-.848 -3.768)" d="m15.3 85.761l51.109-17.82 2.529 7.318-51.113 17.82z" fill="#20639b" data-name="Path 146"/>
<path transform="translate(-.848 -3.768)" d="m15.3 85.761l51.109-17.82 2.529 7.318-51.113 17.82z" fill="none" data-name="Path 147"/>
<path transform="translate(-1.459 -3.309)" d="M38.127,94.288h0A42.161,42.161,0,0,1,26.656,59.669l14.188,2.2h0A27.84,27.84,0,0,0,48.145,84Z" fill="#20639b" data-name="Path 148"/>
<path transform="translate(-6.275 -6.1)" d="m128.84 160a26.052 26.052 0 1 1 28.553 -5.3l-8.7-8.9a13.58 13.58 0 1 0 -14.916 2.774z" fill="#3caea3" data-name="Path 149"/>
<path transform="translate(-6.275 -6.1)" d="m128.84 160a26.052 26.052 0 1 1 28.553 -5.3l-8.7-8.9a13.58 13.58 0 1 0 -14.916 2.774z" fill="none" data-name="Path 150"/>
<path transform="translate(-5.186 -8.347)" d="m131.76 150.51a26.033 26.033 0 1 1 -29.641 3.639l8.438 9.384a13.407 13.407 0 1 0 15.286 -1.883z" fill="#3caea3" data-name="Path 151"/>
<path transform="translate(-5.186 -8.347)" d="m131.76 150.51a26.033 26.033 0 1 1 -29.641 3.639l8.438 9.384a13.407 13.407 0 1 0 15.286 -1.883z" fill="none" data-name="Path 152"/>
<path transform="translate(-4.974 -5.443)" d="M89.685,196.583l69.2-98.44,3.719,2.618L93.4,199.2Z" fill="#3caea3" data-name="Path 153"/>
<path transform="translate(-4.974 -5.443)" d="M89.685,196.583l69.2-98.44,3.719,2.618L93.4,199.2Z" fill="none" data-name="Path 154"/>
<path transform="translate(-5.396 -5.628)" d="m97.3 198.25l71.517-96.775 3.659 2.707-71.517 96.775z" fill="#3caea3" data-name="Path 155"/>
<path transform="translate(-5.396 -5.628)" d="m97.3 198.25l71.517-96.775 3.659 2.707-71.517 96.775z" fill="none" data-name="Path 156"/>
<path transform="translate(-7.913 -6.149)" d="m144.36 110.87a25.8 25.8 0 0 1 21.829 22.455l-11.277 1.354a14.443 14.443 0 0 0 -12.215 -12.576z" fill="#3caea3" data-name="Path 157"/>
<path transform="translate(-5.241 -9.823)" d="m116.02 200.39a25.822 25.822 0 0 1 -21.524 -21.381l11.449-1.875a14.22 14.22 0 0 0 11.839 11.79z" fill="#3caea3" data-name="Path 158"/>
<path transform="translate(-6.58 -8.114)" d="m129.02 161.65a25.6 25.6 0 0 1 -10.368 -9.171l9.349-6.183a14.4 14.4 0 0 0 5.8 5.218z" fill="#3caea3" data-name="Path 159"/>
<path transform="translate(-7.109 -8.389)" d="m133.75 151.26a25.825 25.825 0 0 1 9.505 9.072l-9.769 5.951a14.366 14.366 0 0 0 -5.3 -5.026z" fill="#3caea3" data-name="Path 160"/>
<path transform="translate(-7.219 -8.286)" d="m130.22 149.52c0.279-0.386 1.751 0.193 3.287 1.294 1.536 1.1 2.555 2.306 2.276 2.692s-1.751-0.193-3.287-1.294-2.555-2.306-2.276-2.692z" fill="#3caea3" data-name="Path 161"/>
<path transform="translate(-5.852 -1.424)" d="m105.51 29.592l18.275-3.549a19.719 19.719 0 0 1 23.12 15.607l4.127 21.3 6.626-1.287-8.922 13.217-13.212-8.918 6.626-1.287-4.127-21.3a10.675 10.675 0 0 0 -12.517 -8.449l-18.275 3.549z" fill="#f6d55c" data-name="Path 162"/>
<path transform="translate(-5.852 -1.424)" d="m105.51 29.592l18.275-3.549a19.719 19.719 0 0 1 23.12 15.607l4.127 21.3 6.626-1.287-8.922 13.217-13.212-8.918 6.626-1.287-4.127-21.3a10.675 10.675 0 0 0 -12.517 -8.449l-18.275 3.549z" fill="none" data-name="Path 163"/>
<path transform="translate(-.782 -7.486)" d="m66.117 180.42-18.287 3.476a19.717 19.717 0 0 1 -23.056 -15.7l-4.041-21.308-6.63 1.26 8.974-13.18 13.175 8.97-6.63 1.26 4.041 21.308a10.674 10.674 0 0 0 12.482 8.5l18.287-3.476z" fill="#ed553b" data-name="Path 164"/>
<path transform="translate(-.782 -7.486)" d="m66.117 180.42-18.287 3.476a19.717 19.717 0 0 1 -23.056 -15.7l-4.041-21.308-6.63 1.26 8.974-13.18 13.175 8.97-6.63 1.26 4.041 21.308a10.674 10.674 0 0 0 12.482 8.5l18.287-3.476z" fill="none" data-name="Path 165"/>
</g>
</svg>
