<?xml version="1.0" encoding="UTF-8"?>
<svg viewBox="0 0 89.171 72.797" xmlns="http://www.w3.org/2000/svg">
<defs>
<clipPath id="a">
<path transform="translate(0)" d="M0,0H80V59.814H0Z" fill="none" data-name="Path 317"/>
</clipPath>
</defs>
<g transform="matrix(.985 -.174 .174 .985 0 13.892)" clip-path="url(#a)" fill-rule="evenodd">
<path transform="translate(-20.421)" d="M0,0H100.421V59.814H0Z" fill="rgba(0,0,0,0)" data-name="Path 290"/>
<path transform="translate(-20.421)" d="M0,0H100.14V59.731H0Z" fill="#ffe599" data-name="Path 291"/>
<path transform="translate(-20.182 .366)" d="m0 0 100.16 59.265" fill="rgba(0,0,0,0)" data-name="Path 292"/>
<path transform="translate(.021 -.117)" d="m0 0 79.955 59.748" fill="none" stroke="#fff" stroke-linejoin="round" stroke-miterlimit="10" data-name="Path 293"/>
<path transform="translate(-20.182 .366)" d="M100.158,0,0,59.265" fill="rgba(0,0,0,0)" data-name="Path 294"/>
<path transform="translate(.133 .366)" d="M79.842,0,0,59.285" fill="none" stroke="#fff" stroke-linejoin="round" stroke-miterlimit="10" data-name="Path 295"/>
<path transform="translate(51.972 2.824)" d="M3.3,0,22.33,2.921l-3.3,21.051L0,21.051Z" fill="#fff" data-name="Path 296"/>
<path transform="translate(51.972 2.824)" d="M3.3,0,22.33,2.921l-3.3,21.051L0,21.051Z" fill="none" stroke="#fff" stroke-linejoin="round" stroke-miterlimit="10" data-name="Path 297"/>
<path transform="translate(53.934 12.421)" d="M1.521,0,17.266,2.437l-1.521,9.782L0,9.782Z" fill="#6aa84f" data-name="Path 298"/>
<path transform="translate(53.934 12.421)" d="M1.521,0,17.266,2.437l-1.521,9.782L0,9.782Z" fill="none" stroke="#fff" stroke-linejoin="round" stroke-miterlimit="10" data-name="Path 299"/>
<path transform="translate(56.319 4.821)" d="M1.158,0l14.1,2.195L14.1,9.644,0,7.449Z" fill="#a4c2f4" data-name="Path 300"/>
<path transform="translate(59.187 6.965)" d="M0,1.651H0A1.651,1.651,0,0,1,1.651,0h0A1.651,1.651,0,0,1,3.3,1.651h0A1.651,1.651,0,0,1,1.651,3.3h0A1.651,1.651,0,0,1,0,1.651Z" fill="#f1c232" data-name="Path 301"/>
<path transform="translate(59.187 6.965)" d="M0,1.651H0A1.651,1.651,0,0,1,1.651,0h0A1.651,1.651,0,0,1,3.3,1.651h0A1.651,1.651,0,0,1,1.651,3.3h0A1.651,1.651,0,0,1,0,1.651Z" fill="none" stroke="#ffd966" stroke-linejoin="round" stroke-miterlimit="10" data-name="Path 302"/>
<path transform="translate(62.487 8.467)" d="M0,4.718,4.278,0,6.447,6Z" fill="#b7b7b7" data-name="Path 303"/>
<path transform="translate(62.487 8.467)" d="M0,4.718,4.278,0,6.447,6Z" fill="none" stroke="#efefef" stroke-linejoin="round" stroke-miterlimit="10" data-name="Path 304"/>
<path transform="translate(45.877 14.741)" d="M0,8.227H0A8.284,8.284,0,0,1,8.339,0h0a8.4,8.4,0,0,1,5.9,2.41,8.171,8.171,0,0,1,2.443,5.817h0a8.284,8.284,0,0,1-8.339,8.227h0A8.284,8.284,0,0,1,0,8.227Z" fill="rgba(0,0,0,0)" data-name="Path 305"/>
<path transform="translate(45.877 14.741)" d="M0,8.227H0A8.284,8.284,0,0,1,8.339,0h0a8.4,8.4,0,0,1,5.9,2.41,8.171,8.171,0,0,1,2.443,5.817h0a8.284,8.284,0,0,1-8.339,8.227h0A8.284,8.284,0,0,1,0,8.227Z" fill="none" stroke="#434343" stroke-linejoin="round" stroke-miterlimit="10" data-name="Path 306"/>
<path transform="translate(48.41 19.624)" d="M0,.375C.591.329,2.312-.22,3.549.1S6.076,1.974,7.42,2.295s3.494-.228,4.192-.274" fill="rgba(0,0,0,0)" data-name="Path 307"/>
<path transform="translate(48.41 19.624)" d="M0,.375C.591.329,2.312-.22,3.549.1S6.076,1.974,7.42,2.295s3.494-.228,4.192-.274" fill="none" stroke="#434343" stroke-linejoin="round" stroke-miterlimit="10" data-name="Path 308"/>
<path transform="translate(48.41 21.397)" d="M0,.492C.591.432,2.312-.289,3.549.131S6.076,2.592,7.42,3.012s3.494-.3,4.192-.359" fill="rgba(0,0,0,0)" data-name="Path 309"/>
<path transform="translate(48.41 21.397)" d="M0,.492C.591.432,2.312-.289,3.549.131S6.076,2.592,7.42,3.012s3.494-.3,4.192-.359" fill="none" stroke="#434343" stroke-linejoin="round" stroke-miterlimit="10" data-name="Path 310"/>
<path transform="translate(48.049 23.574)" d="M0,.492C.591.432,2.312-.289,3.549.131S6.076,2.592,7.42,3.012s3.494-.3,4.192-.359" fill="rgba(0,0,0,0)" data-name="Path 311"/>
<path transform="translate(48.049 23.574)" d="M0,.492C.591.432,2.312-.289,3.549.131S6.076,2.592,7.42,3.012s3.494-.3,4.192-.359" fill="none" stroke="#434343" stroke-linejoin="round" stroke-miterlimit="10" data-name="Path 312"/>
<path transform="translate(47.575 25.769)" d="M0,.492C.592.432,2.312-.289,3.549.131S6.076,2.592,7.42,3.012s3.494-.3,4.192-.359" fill="rgba(0,0,0,0)" data-name="Path 313"/>
<path transform="translate(47.575 25.769)" d="M0,.492C.592.432,2.312-.289,3.549.131S6.076,2.592,7.42,3.012s3.494-.3,4.192-.359" fill="none" stroke="#434343" stroke-linejoin="round" stroke-miterlimit="10" data-name="Path 314"/>
<path transform="translate(49.221 17.409)" d="M0,.492C.591.432,2.312-.289,3.549.131S6.076,2.592,7.42,3.012s3.494-.3,4.192-.359" fill="rgba(0,0,0,0)" data-name="Path 315"/>
<path transform="translate(49.221 17.409)" d="M0,.492C.591.432,2.312-.289,3.549.131S6.076,2.592,7.42,3.012s3.494-.3,4.192-.359" fill="none" stroke="#434343" stroke-linejoin="round" stroke-miterlimit="10" data-name="Path 316"/>
</g>
</svg>
