<?xml version="1.0" encoding="UTF-8"?>
<svg width="169.04" height="200" viewBox="0 0 169.043 200" xmlns="http://www.w3.org/2000/svg">
<defs>
<clipPath id="a">
<path d="M0,0H169.043V200H0Z" fill="none" data-name="Path 288"/>
</clipPath>
</defs>
<g clip-path="url(#a)" fill-rule="evenodd">
<path d="M0,0H169.043V200H0Z" fill="rgba(0,0,0,0)" data-name="Path 262"/>
<path transform="translate(-.385 -4.255)" d="M39.122,82.087H26.365V69.722H19.06V82.087H6.3v7.305H19.06v12.365h7.305V89.392H39.122Z" fill="#3caea3" data-name="Path 263"/>
<path transform="translate(-.385 -4.255)" d="M39.122,82.087H26.365V69.722H19.06V82.087H6.3v7.305H19.06v12.365h7.305V89.392H39.122Z" fill="none" data-name="Path 264"/>
<path transform="translate(-1.544 -7.288)" d="M58.114,119.407H25.3v7.637H58.114Z" fill="none" data-name="Path 265"/>
<path transform="translate(-2.094 -8.623)" d="M67.12,141.289H34.3v6.558H67.12Z" fill="#e06666" data-name="Path 266"/>
<path transform="translate(-4.501 -1.529)" d="m135.83 25.046l-62.08 138.93 25.789 12.586 62.08-138.93z" fill="#f6d55c" data-name="Path 267"/>
<path transform="translate(-4.501 -1.529)" d="m135.83 25.046l-62.08 138.93 25.789 12.586 62.08-138.93z" fill="none" data-name="Path 268"/>
<path transform="translate(-4.505 -10.51)" d="M73.805,172.2l.344,35.019,25.913-22.2Z" fill="#fff2cc" data-name="Path 269"/>
<path transform="translate(-4.505 -10.51)" d="M73.805,172.2l.344,35.019,25.913-22.2Z" fill="none" data-name="Path 270"/>
<path transform="translate(-4.526 -11.925)" d="m83.563 199.74l-8.919-4.353-0.484 13.24z" data-name="Path 271"/>
<path transform="translate(-4.526 -11.925)" d="m83.563 199.74l-8.919-4.353-0.484 13.24z" fill="none" stroke="#000" stroke-linejoin="round" stroke-miterlimit="10" data-name="Path 272"/>
<path transform="translate(-8.536 -1.013)" d="M143.4,16.6l-3.546,7.935,25.6,12.5L169,29.1Z" fill="#f1c232" data-name="Path 273"/>
<path transform="translate(-8.536 -1.013)" d="M143.4,16.6l-3.546,7.935,25.6,12.5L169,29.1Z" fill="none" data-name="Path 274"/>
<path transform="translate(-8.767 -.007)" d="M150.551.121l-6.909,15.462,25.6,12.5,6.909-15.462Z" fill="#f4cccc" data-name="Path 275"/>
<path transform="translate(-8.767 -.007)" d="M150.551.121l-6.909,15.462,25.6,12.5,6.909-15.462Z" fill="none" data-name="Path 276"/>
<path transform="translate(-4.953 -1.749)" d="m143.22 28.657l-62.08 138.93" fill="rgba(0,0,0,0)" data-name="Path 277"/>
<path transform="translate(-4.953 -1.749)" d="m143.22 28.657l-62.08 138.93" fill="none" stroke="#f9e393" stroke-linejoin="round" stroke-miterlimit="10" data-name="Path 278"/>
<path transform="translate(-5.79 -2.158)" d="m156.95 35.357l-62.08 138.93" fill="rgba(0,0,0,0)" data-name="Path 279"/>
<path transform="translate(-5.79 -2.158)" d="m156.95 35.357l-62.08 138.93" fill="none" stroke="#f9e393" stroke-linejoin="round" stroke-miterlimit="10" data-name="Path 280"/>
<path transform="translate(-3.378 -5.11)" d="M55.344,93.886h10.3V83.719h6.007V93.886h10.3v6.007h-10.3V110.06H65.641V99.893h-10.3Z" fill="#3caea3" data-name="Path 281"/>
<path transform="translate(-3.378 -5.11)" d="M55.344,93.886h10.3V83.719h6.007V93.886h10.3v6.007h-10.3V110.06H65.641V99.893h-10.3Z" fill="none" data-name="Path 282"/>
<path transform="translate(-1.471 -9.823)" d="m50.7 171.11h-10.3v-10.167h-6v10.167h-10.3v6.007h10.3v10.167h6.007v-10.167h10.293z" fill="#3caea3" data-name="Path 283"/>
<path transform="translate(-2.452 -12.356)" d="M61.957,202.446H40.18v7.315H61.957Z" fill="#e06666" data-name="Path 284"/>
<path transform="translate(-2.624 -3.509)" d="M79.42,57.5H42.994v9.288H79.42Z" fill="#e06666" data-name="Path 285"/>
<path transform="translate(-2.624 -3.509)" d="M79.42,57.5H42.994v9.288H79.42Z" fill="none" data-name="Path 286"/>
<path transform="translate(-19.624 53.491)" d="M79.42,57.5H42.994v9.288H79.42Z" fill="#e06666" data-name="Path 287"/>
</g>
</svg>
