<svg xmlns="http://www.w3.org/2000/svg" xmlns:xlink="http://www.w3.org/1999/xlink" width="169.043" height="200" viewBox="0 0 169.043 200">
  <defs>
    <clipPath id="clip-path">
      <path id="Path_288" data-name="Path 288" d="M0,0H169.043V200H0Z" fill="none"/>
    </clipPath>
  </defs>
  <g id="list_ico" clip-path="url(#clip-path)">
    <path id="Path_262" data-name="Path 262" d="M0,0H169.043V200H0Z" fill="rgba(0,0,0,0)" fill-rule="evenodd"/>
    <path id="Path_263" data-name="Path 263" d="M39.122,82.087H26.365V69.722H19.06V82.087H6.3v7.305H19.06v12.365h7.305V89.392H39.122Z" transform="translate(-0.385 -4.255)" fill="#3caea3" fill-rule="evenodd"/>
    <path id="Path_264" data-name="Path 264" d="M39.122,82.087H26.365V69.722H19.06V82.087H6.3v7.305H19.06v12.365h7.305V89.392H39.122Z" transform="translate(-0.385 -4.255)" fill="none" fill-rule="evenodd"/>
    <path id="Path_265" data-name="Path 265" d="M58.114,119.407H25.3v7.637H58.114Z" transform="translate(-1.544 -7.288)" fill="none" fill-rule="evenodd"/>
    <path id="Path_266" data-name="Path 266" d="M67.12,141.289H34.3v6.558H67.12Z" transform="translate(-2.094 -8.623)" fill="#e06666" fill-rule="evenodd"/>
    <path id="Path_267" data-name="Path 267" d="M135.827,25.046l-62.08,138.93,25.789,12.586,62.08-138.93Z" transform="translate(-4.501 -1.529)" fill="#f6d55c" fill-rule="evenodd"/>
    <path id="Path_268" data-name="Path 268" d="M135.827,25.046l-62.08,138.93,25.789,12.586,62.08-138.93Z" transform="translate(-4.501 -1.529)" fill="none" fill-rule="evenodd"/>
    <path id="Path_269" data-name="Path 269" d="M73.805,172.2l.344,35.019,25.913-22.2Z" transform="translate(-4.505 -10.51)" fill="#fff2cc" fill-rule="evenodd"/>
    <path id="Path_270" data-name="Path 270" d="M73.805,172.2l.344,35.019,25.913-22.2Z" transform="translate(-4.505 -10.51)" fill="none" fill-rule="evenodd"/>
    <path id="Path_271" data-name="Path 271" d="M83.563,199.738l-8.919-4.353-.484,13.24Z" transform="translate(-4.526 -11.925)" fill-rule="evenodd"/>
    <path id="Path_272" data-name="Path 272" d="M83.563,199.738l-8.919-4.353-.484,13.24Z" transform="translate(-4.526 -11.925)" fill="none" stroke="#000" stroke-linejoin="round" stroke-miterlimit="10" stroke-width="1" fill-rule="evenodd"/>
    <path id="Path_273" data-name="Path 273" d="M143.4,16.6l-3.546,7.935,25.6,12.5L169,29.1Z" transform="translate(-8.536 -1.013)" fill="#f1c232" fill-rule="evenodd"/>
    <path id="Path_274" data-name="Path 274" d="M143.4,16.6l-3.546,7.935,25.6,12.5L169,29.1Z" transform="translate(-8.536 -1.013)" fill="none" fill-rule="evenodd"/>
    <path id="Path_275" data-name="Path 275" d="M150.551.121l-6.909,15.462,25.6,12.5,6.909-15.462Z" transform="translate(-8.767 -0.007)" fill="#f4cccc" fill-rule="evenodd"/>
    <path id="Path_276" data-name="Path 276" d="M150.551.121l-6.909,15.462,25.6,12.5,6.909-15.462Z" transform="translate(-8.767 -0.007)" fill="none" fill-rule="evenodd"/>
    <path id="Path_277" data-name="Path 277" d="M143.225,28.657l-62.08,138.93" transform="translate(-4.953 -1.749)" fill="rgba(0,0,0,0)" fill-rule="evenodd"/>
    <path id="Path_278" data-name="Path 278" d="M143.225,28.657l-62.08,138.93" transform="translate(-4.953 -1.749)" fill="none" stroke="#f9e393" stroke-linejoin="round" stroke-miterlimit="10" stroke-width="1" fill-rule="evenodd"/>
    <path id="Path_279" data-name="Path 279" d="M156.952,35.357l-62.08,138.93" transform="translate(-5.79 -2.158)" fill="rgba(0,0,0,0)" fill-rule="evenodd"/>
    <path id="Path_280" data-name="Path 280" d="M156.952,35.357l-62.08,138.93" transform="translate(-5.79 -2.158)" fill="none" stroke="#f9e393" stroke-linejoin="round" stroke-miterlimit="10" stroke-width="1" fill-rule="evenodd"/>
    <path id="Path_281" data-name="Path 281" d="M55.344,93.886h10.3V83.719h6.007V93.886h10.3v6.007h-10.3V110.06H65.641V99.893h-10.3Z" transform="translate(-3.378 -5.11)" fill="#3caea3" fill-rule="evenodd"/>
    <path id="Path_282" data-name="Path 282" d="M55.344,93.886h10.3V83.719h6.007V93.886h10.3v6.007h-10.3V110.06H65.641V99.893h-10.3Z" transform="translate(-3.378 -5.11)" fill="none" fill-rule="evenodd"/>
    <path id="Path_283" data-name="Path 283" d="M50.7,171.111h-10.3V160.944H34.4v10.167H24.1v6.007H34.4v10.167h6.007V177.118H50.7Z" transform="translate(-1.471 -9.823)" fill="#3caea3" fill-rule="evenodd"/>
    <path id="Path_284" data-name="Path 284" d="M61.957,202.446H40.18v7.315H61.957Z" transform="translate(-2.452 -12.356)" fill="#e06666" fill-rule="evenodd"/>
    <path id="Path_285" data-name="Path 285" d="M79.42,57.5H42.994v9.288H79.42Z" transform="translate(-2.624 -3.509)" fill="#e06666" fill-rule="evenodd"/>
    <path id="Path_286" data-name="Path 286" d="M79.42,57.5H42.994v9.288H79.42Z" transform="translate(-2.624 -3.509)" fill="none" fill-rule="evenodd"/>
    <path id="Path_287" data-name="Path 287" d="M79.42,57.5H42.994v9.288H79.42Z" transform="translate(-19.624 53.491)" fill="#e06666" fill-rule="evenodd"/>
  </g>
</svg>
