<?xml version="1.0" encoding="UTF-8"?>
<svg width="341.87" height="400" viewBox="0 0 341.866 400" xmlns="http://www.w3.org/2000/svg">
<defs>
<clipPath id="a">
<path d="M341.866,0H0V400H341.866Z" fill="none" data-name="Path 258"/>
</clipPath>
</defs>
<g clip-path="url(#a)" fill-rule="evenodd">
<path d="M341.866,0H0V400H341.866Z" fill="#3caea3" data-name="Path 224"/>
<path transform="translate(44.62 141.81)" d="m225.44 252.6c6.044-30.7-9.325-61.979-39.465-80.308s-69.643-20.424-101.44-5.379-50.17 44.531-47.19 75.712z" fill="#20639b" data-name="Path 225"/>
<path transform="translate(44.62 141.81)" d="m225.44 252.6c6.044-30.7-9.325-61.979-39.465-80.308s-69.643-20.424-101.44-5.379-50.17 44.531-47.19 75.712z" fill="none" data-name="Path 226"/>
<path transform="translate(79.662 113.16)" d="m75.815 125.22l-2.291 51.081c-1.265 28.211 8.15 51.559 21.03 52.149s24.347-21.8 25.613-50.012l2.291-51.081z" fill="#f4cccc" data-name="Path 227"/>
<path transform="translate(79.662 113.16)" d="m75.815 125.22l-2.291 51.081c-1.265 28.211 8.15 51.559 21.03 52.149s24.347-21.8 25.613-50.012l2.291-51.081z" fill="none" data-name="Path 228"/>
<path transform="translate(40.619 46.102)" d="m44.7 51.017c-6.508 61.126 5.047 119.68 30.083 152.46s59.51 34.482 89.755 4.435 51.377-86.991 55.018-148.26z" fill="#f4cccc" data-name="Path 229"/>
<path transform="translate(40.619 46.102)" d="m44.7 51.017c-6.508 61.126 5.047 119.68 30.083 152.46s59.51 34.482 89.755 4.435 51.377-86.991 55.018-148.26z" fill="none" data-name="Path 230"/>
<path transform="translate(197.14 72.209)" d="m38.913 111.73a18.515 18.515 0 0 0 24.1 1.914 18.647 18.647 0 0 0 -16.834 -32.77z" fill="#f4cccc" data-name="Path 231"/>
<path transform="translate(197.14 72.209)" d="m38.913 111.73a18.515 18.515 0 0 0 24.1 1.914 18.647 18.647 0 0 0 -16.834 -32.77z" fill="none" data-name="Path 232"/>
<path transform="translate(14.431 75.621)" d="m115.13 83.684l-3.6 46.93" fill="rgba(0,0,0,0)" data-name="Path 233"/>
<path transform="translate(14.431 75.621)" d="m115.13 83.684l-3.6 46.93" fill="none" stroke="#000" stroke-linejoin="round" stroke-miterlimit="10" data-name="Path 234"/>
<path transform="translate(26.379 95.05)" d="m99.578 111.18l26.349-6" fill="rgba(0,0,0,0)" data-name="Path 235"/>
<path transform="translate(26.379 95.05)" d="m99.578 111.18l26.349-6" fill="none" stroke="#000" stroke-linejoin="round" stroke-miterlimit="10" data-name="Path 236"/>
<path transform="translate(81.833 67.974)" d="m123.14 98.687c0-12.959-11.467-23.465-25.613-23.465s-25.613 10.506-25.613 23.465 11.467 23.465 25.613 23.465 25.613-10.506 25.613-23.465z" fill="#fff" data-name="Path 237"/>
<path transform="translate(81.833 67.974)" d="m123.14 98.687c0-12.959-11.467-23.465-25.613-23.465s-25.613 10.506-25.613 23.465 11.467 23.465 25.613 23.465 25.613-10.506 25.613-23.465z" fill="none" stroke="#000" stroke-linejoin="round" stroke-miterlimit="10" data-name="Path 238"/>
<path transform="translate(-47.393 63.25)" d="m167.64 93.459c0-12.959-11.467-23.465-25.613-23.465-14.145 0-25.613 10.506-25.613 23.465s11.467 23.465 25.613 23.465c14.145 0 25.613-10.505 25.613-23.465z" fill="#fff" data-name="Path 239"/>
<path transform="translate(-47.393 63.25)" d="m167.64 93.459c0-12.959-11.467-23.465-25.613-23.465-14.145 0-25.613 10.506-25.613 23.465s11.467 23.465 25.613 23.465c14.145 0 25.613-10.505 25.613-23.465z" fill="none" stroke="#000" stroke-linejoin="round" stroke-miterlimit="10" data-name="Path 240"/>
<path transform="translate(92.841 76.908)" d="m92.576 89.753a4.943 4.943 0 0 0 -5.2 -4.644 4.943 4.943 0 0 0 -5.2 4.644 4.943 4.943 0 0 0 5.2 4.644 4.943 4.943 0 0 0 5.2 -4.644z" fill="#cfe2f3" data-name="Path 241"/>
<path transform="translate(92.841 76.908)" d="m92.576 89.753a4.943 4.943 0 0 0 -5.2 -4.644 4.943 4.943 0 0 0 -5.2 4.644 4.943 4.943 0 0 0 5.2 4.644 4.943 4.943 0 0 0 5.2 -4.644z" fill="none" stroke="#000" stroke-linejoin="round" stroke-miterlimit="10" data-name="Path 242"/>
<path transform="translate(-37.701 72.184)" d="m137.53 84.525a4.943 4.943 0 0 0 -5.2 -4.644 4.943 4.943 0 0 0 -5.2 4.644 4.943 4.943 0 0 0 5.2 4.644 4.943 4.943 0 0 0 5.2 -4.644z" fill="#cfe2f3" data-name="Path 243"/>
<path transform="translate(-37.701 72.184)" d="m137.53 84.525a4.943 4.943 0 0 0 -5.2 -4.644 4.943 4.943 0 0 0 -5.2 4.644 4.943 4.943 0 0 0 5.2 4.644 4.943 4.943 0 0 0 5.2 -4.644z" fill="none" stroke="#000" stroke-linejoin="round" stroke-miterlimit="10" data-name="Path 244"/>
<path transform="translate(79.265 62.243)" d="m122.62 75.127-33.468-6.247-21.767 13.233l66.937 12.493z" fill="#f4cccc" data-name="Path 245"/>
<path transform="translate(79.265 62.243)" d="m122.62 75.127-33.468-6.247-21.767 13.233l66.937 12.493z" fill="none" data-name="Path 246"/>
<path transform="translate(-49.591 59.394)" d="m164.1 65.727l-34 0.616-18.695 17.343 68-1.233z" fill="#f4cccc" data-name="Path 247"/>
<path transform="translate(-49.591 59.394)" d="m164.1 65.727l-34 0.616-18.695 17.343 68-1.233z" fill="none" data-name="Path 248"/>
<path transform="translate(43.541 109.65)" d="m87.435 123.53c-0.026 6.828 4.378 13.02 11.486 16.151a25.938 25.938 0 0 0 22.644 -1.117c6.854-3.82 10.791-10.423 10.268-17.224l-22.176 1.726z" fill="rgba(0,0,0,0)" data-name="Path 249"/>
<path transform="translate(43.541 109.65)" d="m87.435 123.53c-0.026 6.828 4.378 13.02 11.486 16.151a25.938 25.938 0 0 0 22.644 -1.117c6.854-3.82 10.791-10.423 10.268-17.224" fill="rgba(0,0,0,0)" data-name="Path 250"/>
<path transform="translate(43.541 109.65)" d="m87.435 123.53c-0.026 6.828 4.378 13.02 11.486 16.151a25.938 25.938 0 0 0 22.644 -1.117c6.854-3.82 10.791-10.423 10.268-17.224" fill="none" stroke="#000" stroke-linejoin="round" stroke-miterlimit="10" data-name="Path 251"/>
<path transform="translate(35.631 23.593)" d="m218.2 55.414c1.608-7.177-3.671-14.282-13.6-18.3a48.83 48.83 0 0 0 -33.048 -0.582c-3.646-4.173-10.319-7.054-18-7.772s-15.469 0.812-21.008 4.127c-3.106-3.783-9.2-6.325-16.131-6.724s-13.7 1.4-17.92 4.765c-5.611-4.01-14.538-5.7-22.919-4.335s-14.705 5.535-16.244 10.707c-6.874 1.139-12.6 4.034-15.7 7.938a9.822 9.822 0 0 0 -0.458 12.418c-6.772 5.354-8.352 12.485-4.158 18.734s13.533 10.677 24.534 11.632c0.078 5.865 5.373 11.247 13.845 14.071a42.069 42.069 0 0 0 27 -0.457c3.493 7.024 13.323 12.193 25.245 13.272s23.8-2.123 30.495-8.225a55.954 55.954 0 0 0 27.334 2.4c9.271-1.47 17.18-5.153 21.943-10.218 8.39 0.6 16.5-2.044 20.311-6.611s2.5-10.088-3.271-13.823c7.484-2.676 11.3-7.985 9.465-13.16s-8.915-9.037-17.547-9.58z" fill="#f6d55c" stroke="#b49c46" data-name="Path 252"/>
<path transform="translate(36.89 25.88)" d="m225.18 76.147a30.866 30.866 0 0 1 -11.693 1.641m-5.345 18.793a31.257 31.257 0 0 1 -5.116 -0.786m-44.159 8.6a18.446 18.446 0 0 0 3.082 -3.584m-58.824-1.464a12.65 12.65 0 0 1 -1.231 -3.932m-39.608-9.681c-0.083-6.244 5.756-11.961 15.008-14.7m-35.383-15.663a18.392 18.392 0 0 0 6.685 5.51m9.473-25.867a8.4 8.4 0 0 0 -0.353 2.6m39.517-8.974a14.878 14.878 0 0 1 3.424 3.319m30.628-1.36a9.665 9.665 0 0 1 1.658 2.862m37.351 0.783a34.484 34.484 0 0 0 -6 2.777m52.644 16.1a12.877 12.877 0 0 1 -1.047 2.922" fill="rgba(0,0,0,0)" data-name="Path 253"/>
<path transform="translate(36.89 25.88)" d="m225.18 76.147a30.866 30.866 0 0 1 -11.693 1.641m-5.345 18.793a31.257 31.257 0 0 1 -5.116 -0.786m-44.159 8.6a18.446 18.446 0 0 0 3.082 -3.584m-58.824-1.464a12.65 12.65 0 0 1 -1.231 -3.932m-39.608-9.681c-0.083-6.244 5.756-11.961 15.008-14.7m-35.383-15.663a18.392 18.392 0 0 0 6.685 5.51m9.473-25.867a8.4 8.4 0 0 0 -0.353 2.6m39.517-8.974a14.878 14.878 0 0 1 3.424 3.319m30.628-1.36a9.665 9.665 0 0 1 1.658 2.862m37.351 0.783a34.484 34.484 0 0 0 -6 2.777m52.644 16.1a12.877 12.877 0 0 1 -1.047 2.922" fill="none" stroke="#b49c46" stroke-linejoin="round" stroke-miterlimit="10" data-name="Path 255"/>
<path transform="translate(-2.514 -.442)" d="M345.714.987H0V402.3H345.714Zm-26.706,26.8V375.5H26.706V27.782Z" fill="#f6d55c" data-name="Path 256"/>
<path transform="translate(-3.847 .892)" d="M345.714.987H0V400.962H345.714ZM319.007,27.693V374.256H26.706V27.693Z" fill="none" data-name="Path 257"/>
<path transform="translate(-51.569 59.621)" d="M171.818,83.684l-60.292.681" fill="none" stroke="#000" stroke-linejoin="round" stroke-miterlimit="10" data-name="Path 260"/>
<path transform="translate(44.431 61.024)" d="m163.16 92.281l-51.63-8.6" fill="none" stroke="#000" stroke-linejoin="round" stroke-miterlimit="10" data-name="Path 261"/>
</g>
</svg>
