<svg xmlns="http://www.w3.org/2000/svg" xmlns:xlink="http://www.w3.org/1999/xlink" width="341.866" height="400" viewBox="0 0 341.866 400">
  <defs>
    <clipPath id="clip-path">
      <path id="Path_258" data-name="Path 258" d="M341.866,0H0V400H341.866Z" fill="none"/>
    </clipPath>
  </defs>
  <g id="me_icon" clip-path="url(#clip-path)">
    <path id="Path_224" data-name="Path 224" d="M341.866,0H0V400H341.866Z" fill="#3caea3" fill-rule="evenodd"/>
    <path id="Path_225" data-name="Path 225" d="M225.442,252.6h0c6.044-30.7-9.325-61.979-39.465-80.308s-69.643-20.424-101.435-5.379-50.17,44.531-47.19,75.712Z" transform="translate(44.62 141.812)" fill="#20639b" fill-rule="evenodd"/>
    <path id="Path_226" data-name="Path 226" d="M225.442,252.6h0c6.044-30.7-9.325-61.979-39.465-80.308s-69.643-20.424-101.435-5.379-50.17,44.531-47.19,75.712Z" transform="translate(44.62 141.812)" fill="none" fill-rule="evenodd"/>
    <path id="Path_227" data-name="Path 227" d="M75.815,125.225l-2.291,51.081h0c-1.265,28.211,8.15,51.559,21.03,52.149s24.347-21.8,25.613-50.012l2.291-51.081Z" transform="translate(79.662 113.159)" fill="#f4cccc" fill-rule="evenodd"/>
    <path id="Path_228" data-name="Path 228" d="M75.815,125.225l-2.291,51.081h0c-1.265,28.211,8.15,51.559,21.03,52.149s24.347-21.8,25.613-50.012l2.291-51.081Z" transform="translate(79.662 113.159)" fill="none" fill-rule="evenodd"/>
    <path id="Path_229" data-name="Path 229" d="M44.7,51.017h0C38.192,112.143,49.747,170.7,74.783,203.48s59.51,34.482,89.755,4.435,51.377-86.991,55.018-148.258Z" transform="translate(40.619 46.102)" fill="#f4cccc" fill-rule="evenodd"/>
    <path id="Path_230" data-name="Path 230" d="M44.7,51.017h0C38.192,112.143,49.747,170.7,74.783,203.48s59.51,34.482,89.755,4.435,51.377-86.991,55.018-148.258Z" transform="translate(40.619 46.102)" fill="none" fill-rule="evenodd"/>
    <path id="Path_231" data-name="Path 231" d="M38.913,111.732h0a18.515,18.515,0,0,0,24.1,1.914A18.647,18.647,0,0,0,46.179,80.876Z" transform="translate(197.138 72.209)" fill="#f4cccc" fill-rule="evenodd"/>
    <path id="Path_232" data-name="Path 232" d="M38.913,111.732h0a18.515,18.515,0,0,0,24.1,1.914A18.647,18.647,0,0,0,46.179,80.876Z" transform="translate(197.138 72.209)" fill="none" fill-rule="evenodd"/>
    <path id="Path_233" data-name="Path 233" d="M115.128,83.684l-3.6,46.93" transform="translate(14.431 75.621)" fill="rgba(0,0,0,0)" fill-rule="evenodd"/>
    <path id="Path_234" data-name="Path 234" d="M115.128,83.684l-3.6,46.93" transform="translate(14.431 75.621)" fill="none" stroke="#000" stroke-linejoin="round" stroke-miterlimit="10" stroke-width="1" fill-rule="evenodd"/>
    <path id="Path_235" data-name="Path 235" d="M99.578,111.185l26.349-6" transform="translate(26.379 95.05)" fill="rgba(0,0,0,0)" fill-rule="evenodd"/>
    <path id="Path_236" data-name="Path 236" d="M99.578,111.185l26.349-6" transform="translate(26.379 95.05)" fill="none" stroke="#000" stroke-linejoin="round" stroke-miterlimit="10" stroke-width="1" fill-rule="evenodd"/>
    <path id="Path_237" data-name="Path 237" d="M123.138,98.687h0c0-12.959-11.467-23.465-25.613-23.465h0c-14.146,0-25.613,10.506-25.613,23.465h0c0,12.959,11.467,23.465,25.613,23.465h0C111.671,122.152,123.138,111.646,123.138,98.687Z" transform="translate(81.833 67.974)" fill="#fff" fill-rule="evenodd"/>
    <path id="Path_238" data-name="Path 238" d="M123.138,98.687h0c0-12.959-11.467-23.465-25.613-23.465h0c-14.146,0-25.613,10.506-25.613,23.465h0c0,12.959,11.467,23.465,25.613,23.465h0C111.671,122.152,123.138,111.646,123.138,98.687Z" transform="translate(81.833 67.974)" fill="none" stroke="#000" stroke-linejoin="round" stroke-miterlimit="10" stroke-width="1" fill-rule="evenodd"/>
    <path id="Path_239" data-name="Path 239" d="M167.643,93.459h0c0-12.959-11.467-23.465-25.613-23.465h0c-14.145,0-25.613,10.506-25.613,23.465h0c0,12.959,11.467,23.465,25.613,23.465h0C156.175,116.924,167.643,106.419,167.643,93.459Z" transform="translate(-47.393 63.25)" fill="#fff" fill-rule="evenodd"/>
    <path id="Path_240" data-name="Path 240" d="M167.643,93.459h0c0-12.959-11.467-23.465-25.613-23.465h0c-14.145,0-25.613,10.506-25.613,23.465h0c0,12.959,11.467,23.465,25.613,23.465h0C156.175,116.924,167.643,106.419,167.643,93.459Z" transform="translate(-47.393 63.25)" fill="none" stroke="#000" stroke-linejoin="round" stroke-miterlimit="10" stroke-width="1" fill-rule="evenodd"/>
    <path id="Path_241" data-name="Path 241" d="M92.576,89.753h0a4.943,4.943,0,0,0-5.2-4.644h0a4.943,4.943,0,0,0-5.2,4.644h0a4.943,4.943,0,0,0,5.2,4.644h0A4.943,4.943,0,0,0,92.576,89.753Z" transform="translate(92.841 76.908)" fill="#cfe2f3" fill-rule="evenodd"/>
    <path id="Path_242" data-name="Path 242" d="M92.576,89.753h0a4.943,4.943,0,0,0-5.2-4.644h0a4.943,4.943,0,0,0-5.2,4.644h0a4.943,4.943,0,0,0,5.2,4.644h0A4.943,4.943,0,0,0,92.576,89.753Z" transform="translate(92.841 76.908)" fill="none" stroke="#000" stroke-linejoin="round" stroke-miterlimit="10" stroke-width="1" fill-rule="evenodd"/>
    <path id="Path_243" data-name="Path 243" d="M137.534,84.525h0a4.943,4.943,0,0,0-5.2-4.644h0a4.943,4.943,0,0,0-5.2,4.644h0a4.943,4.943,0,0,0,5.2,4.644h0A4.943,4.943,0,0,0,137.534,84.525Z" transform="translate(-37.701 72.184)" fill="#cfe2f3" fill-rule="evenodd"/>
    <path id="Path_244" data-name="Path 244" d="M137.534,84.525h0a4.943,4.943,0,0,0-5.2-4.644h0a4.943,4.943,0,0,0-5.2,4.644h0a4.943,4.943,0,0,0,5.2,4.644h0A4.943,4.943,0,0,0,137.534,84.525Z" transform="translate(-37.701 72.184)" fill="none" stroke="#000" stroke-linejoin="round" stroke-miterlimit="10" stroke-width="1" fill-rule="evenodd"/>
    <path id="Path_245" data-name="Path 245" d="M122.621,75.127,89.153,68.88,67.386,82.113l66.937,12.493Z" transform="translate(79.265 62.243)" fill="#f4cccc" fill-rule="evenodd"/>
    <path id="Path_246" data-name="Path 246" d="M122.621,75.127,89.153,68.88,67.386,82.113l66.937,12.493Z" transform="translate(79.265 62.243)" fill="none" fill-rule="evenodd"/>
    <path id="Path_247" data-name="Path 247" d="M164.095,65.727l-34,.616L111.4,83.686l68-1.233Z" transform="translate(-49.591 59.394)" fill="#f4cccc" fill-rule="evenodd"/>
    <path id="Path_248" data-name="Path 248" d="M164.095,65.727l-34,.616L111.4,83.686l68-1.233Z" transform="translate(-49.591 59.394)" fill="none" fill-rule="evenodd"/>
    <path id="Path_249" data-name="Path 249" d="M87.435,123.529h0c-.026,6.828,4.378,13.02,11.486,16.151a25.938,25.938,0,0,0,22.644-1.117c6.854-3.82,10.791-10.423,10.268-17.224l-22.176,1.726Z" transform="translate(43.541 109.647)" fill="rgba(0,0,0,0)" fill-rule="evenodd"/>
    <path id="Path_250" data-name="Path 250" d="M87.435,123.529h0c-.026,6.828,4.378,13.02,11.486,16.151a25.938,25.938,0,0,0,22.644-1.117c6.854-3.82,10.791-10.423,10.268-17.224" transform="translate(43.541 109.647)" fill="rgba(0,0,0,0)" fill-rule="evenodd"/>
    <path id="Path_251" data-name="Path 251" d="M87.435,123.529h0c-.026,6.828,4.378,13.02,11.486,16.151a25.938,25.938,0,0,0,22.644-1.117c6.854-3.82,10.791-10.423,10.268-17.224" transform="translate(43.541 109.647)" fill="none" stroke="#000" stroke-linejoin="round" stroke-miterlimit="10" stroke-width="1" fill-rule="evenodd"/>
    <path id="Path_252" data-name="Path 252" d="M218.2,55.414h0c1.608-7.177-3.671-14.282-13.6-18.3a48.83,48.83,0,0,0-33.048-.582h0c-3.646-4.173-10.319-7.054-18-7.772s-15.469.812-21.008,4.127h0c-3.106-3.783-9.2-6.325-16.131-6.724s-13.7,1.4-17.92,4.765h0c-5.611-4.01-14.538-5.7-22.919-4.335S60.869,32.128,59.33,37.3h0c-6.874,1.139-12.6,4.034-15.7,7.938a9.822,9.822,0,0,0-.458,12.418h0C36.4,63.01,34.82,70.141,39.014,76.39S52.547,87.067,63.548,88.022c.078,5.865,5.373,11.247,13.845,14.071a42.069,42.069,0,0,0,27-.457c3.493,7.024,13.323,12.193,25.245,13.272s23.8-2.123,30.495-8.225a55.954,55.954,0,0,0,27.334,2.4c9.271-1.47,17.18-5.153,21.943-10.218h0c8.39.6,16.5-2.044,20.311-6.611s2.5-10.088-3.271-13.823h0c7.484-2.676,11.3-7.985,9.465-13.16S227,56.234,218.368,55.691Z" transform="translate(35.631 23.593)" fill="#f6d55c" stroke="#b49c46" stroke-width="1" fill-rule="evenodd"/>
    <path id="Path_253" data-name="Path 253" d="M225.184,76.147h0a30.866,30.866,0,0,1-11.693,1.641m-5.345,18.793a31.257,31.257,0,0,1-5.116-.786m-44.159,8.6a18.446,18.446,0,0,0,3.082-3.584m-58.824-1.464h0a12.65,12.65,0,0,1-1.231-3.932M62.29,85.734c-.083-6.244,5.756-11.961,15.008-14.7M41.915,55.371A18.392,18.392,0,0,0,48.6,60.881m9.473-25.867h0a8.4,8.4,0,0,0-.353,2.6M97.237,28.64h0a14.878,14.878,0,0,1,3.424,3.319m30.628-1.36h0a9.665,9.665,0,0,1,1.658,2.862m37.351.783h0a34.484,34.484,0,0,0-6,2.777m52.644,16.1h0a12.877,12.877,0,0,1-1.047,2.922" transform="translate(36.89 25.88)" fill="rgba(0,0,0,0)" fill-rule="evenodd"/>
    <path id="Path_255" data-name="Path 255" d="M225.184,76.147h0a30.866,30.866,0,0,1-11.693,1.641m-5.345,18.793a31.257,31.257,0,0,1-5.116-.786m-44.159,8.6a18.446,18.446,0,0,0,3.082-3.584m-58.824-1.464h0a12.65,12.65,0,0,1-1.231-3.932M62.29,85.734c-.083-6.244,5.756-11.961,15.008-14.7M41.915,55.371A18.392,18.392,0,0,0,48.6,60.881m9.473-25.867h0a8.4,8.4,0,0,0-.353,2.6M97.237,28.64h0a14.878,14.878,0,0,1,3.424,3.319m30.628-1.36h0a9.665,9.665,0,0,1,1.658,2.862m37.351.783h0a34.484,34.484,0,0,0-6,2.777m52.644,16.1h0a12.877,12.877,0,0,1-1.047,2.922" transform="translate(36.89 25.88)" fill="none" stroke="#b49c46" stroke-linejoin="round" stroke-miterlimit="10" stroke-width="1" fill-rule="evenodd"/>
    <path id="Path_256" data-name="Path 256" d="M345.714.987H0V402.3H345.714Zm-26.706,26.8V375.5H26.706V27.782Z" transform="translate(-2.514 -0.442)" fill="#f6d55c" fill-rule="evenodd"/>
    <path id="Path_257" data-name="Path 257" d="M345.714.987H0V400.962H345.714ZM319.007,27.693V374.256H26.706V27.693Z" transform="translate(-3.847 0.892)" fill="none" fill-rule="evenodd"/>
    <path id="Path_260" data-name="Path 260" d="M171.818,83.684l-60.292.681" transform="translate(-51.569 59.621)" fill="none" stroke="#000" stroke-linejoin="round" stroke-miterlimit="10" stroke-width="1" fill-rule="evenodd"/>
    <path id="Path_261" data-name="Path 261" d="M163.157,92.281l-51.63-8.6" transform="translate(44.431 61.024)" fill="none" stroke="#000" stroke-linejoin="round" stroke-miterlimit="10" stroke-width="1" fill-rule="evenodd"/>
  </g>
</svg>
