<?xml version="1.0" encoding="UTF-8"?>
<svg width="345" height="406.84" viewBox="0 0 345 406.838" xmlns="http://www.w3.org/2000/svg">
<defs>
<clipPath id="a">
<path d="M345,0H0V406.838H345Z" fill="none" data-name="Path 197"/>
</clipPath>
</defs>
<g clip-path="url(#a)" fill-rule="evenodd">
<path d="M345,0H0V406.838H345Z" fill="rgba(0,0,0,0)" data-name="Path 178"/>
<path transform="translate(192.38 121.37)" d="m95.293 142.42l-70.633-10.7-11 72.633 26.483-20.092 57.57 80.455 28.669-21.75-57.572-80.454z" fill="#f6d55c" data-name="Path 179"/>
<path transform="translate(192.38 121.37)" d="m95.293 142.42l-70.633-10.7-11 72.633 26.483-20.092 57.57 80.455 28.669-21.75-57.572-80.454z" fill="none" data-name="Path 180"/>
<path transform="translate(202.1 31.024)" d="m9.679 82.664l4.3 55.353 53.009 10.256-18.6-21.3 75.912-70.285-20.1-23.016-75.92 70.289z" fill="#20639b" data-name="Path 181"/>
<path transform="translate(202.1 31.024)" d="m9.679 82.664l4.3 55.353 53.009 10.256-18.6-21.3 75.912-70.285-20.1-23.016-75.92 70.289z" fill="none" data-name="Path 182"/>
<path transform="translate(-91.784 5.61)" d="m150.91 120.8 78.486 39.029-16.82-88.067-15.517 12.338-58.495-78.012-30.631 24.358l58.494 78.012z" fill="#3caea3" data-name="Path 183"/>
<path transform="translate(-91.784 5.61)" d="m150.91 120.8 78.486 39.029-16.82-88.067-15.517 12.338-58.495-78.012-30.631 24.358l58.494 78.012z" fill="none" data-name="Path 184"/>
<path transform="translate(-82.93 124.42)" d="M216.044,199.553l4.176-64.513-61.969,10.68L175,161.324l-66.9,76.051L132.393,260l66.9-76.051Z" fill="#ed553b" data-name="Path 185"/>
<path transform="translate(-82.93 124.42)" d="M216.044,199.553l4.176-64.513-61.969,10.68L175,161.324l-66.9,76.051L132.393,260l66.9-76.051Z" fill="none" data-name="Path 186"/>
<path transform="translate(208.08 87.881)" d="M32.46,95.381,11.095,123.419,32.46,151.457v-18.2h83.146V113.583H32.46Z" fill="#20639b" data-name="Path 187"/>
<path transform="translate(208.08 87.881)" d="M32.46,95.381,11.095,123.419,32.46,151.457v-18.2h83.146V113.583H32.46Z" fill="none" data-name="Path 188"/>
<path transform="translate(71.837 16.499)" d="M77.969,96.356l22.693,41.118,22.693-41.118H107.84V17.907H93.484V96.356Z" fill="#20639b" data-name="Path 189"/>
<path transform="translate(71.837 16.499)" d="M77.969,96.356l22.693,41.118,22.693-41.118H107.84V17.907H93.484V96.356Z" fill="none" data-name="Path 190"/>
<path transform="translate(-103.18 86.707)" d="m195.19 160.46l33.765-44.072-50.1-22.285 5.087 20.657-69.839 18.137 6.166 25.042 69.834-18.137z" fill="#ed553b" data-name="Path 191"/>
<path transform="translate(-103.18 86.707)" d="m195.19 160.46l33.765-44.072-50.1-22.285 5.087 20.657-69.839 18.137 6.166 25.042 69.834-18.137z" fill="none" data-name="Path 192"/>
<path transform="translate(75.463 120.05)" d="m129.8 156.84l-30.4-26.548-26.67 30.535 17.54-1.226 7.268 110.96 21.985-1.536-7.268-110.96z" fill="#f6d55c" data-name="Path 193"/>
<path transform="translate(75.463 120.05)" d="m129.8 156.84l-30.4-26.548-26.67 30.535 17.54-1.226 7.268 110.96 21.985-1.536-7.268-110.96z" fill="none" data-name="Path 194"/>
<path transform="translate(65.309 79.968)" d="m143.5 123.12a36.317 36.317 0 0 0 -36.309 -36.325 36.317 36.317 0 0 0 -36.309 36.325 36.317 36.317 0 0 0 36.309 36.325 36.317 36.317 0 0 0 36.309 -36.325z" fill="#cd5f95" data-name="Path 195"/>
<path transform="translate(65.309 79.968)" d="m143.5 123.12a36.317 36.317 0 0 0 -36.309 -36.325 36.317 36.317 0 0 0 -36.309 36.325 36.317 36.317 0 0 0 36.309 36.325 36.317 36.317 0 0 0 36.309 -36.325z" fill="none" data-name="Path 196"/>
</g>
</svg>
